<?xml version="1.0" encoding="iso-8859-1"?>
<!-- Uploaded to: SVG Repo, www.svgrepo.com, Generator: SVG Repo Mixer Tools -->
<svg version="1.1" id="Layer_1" xmlns="http://www.w3.org/2000/svg" xmlns:xlink="http://www.w3.org/1999/xlink" 
	 viewBox="0 0 512 512" xml:space="preserve">
<g>
	<g>
		<rect x="158.99" width="194.021" height="48.505"/>
	</g>
</g>
<g>
	<g>
		<rect x="158.99" y="371.874" width="194.021" height="48.505"/>
	</g>
</g>
<g>
	<g>
		<path d="M290.665,80.842h-18.497v258.695h18.497c28.189-24.479,46.177-74.427,46.177-129.347
			C336.842,155.269,318.854,105.321,290.665,80.842z"/>
	</g>
</g>
<g>
	<g>
		<path d="M333.824,80.842h-0.382c22.551,32.614,35.737,78.902,35.737,129.347c0,50.445-13.186,96.734-35.737,129.347h0.382
			c60.867-24.069,100.029-74.572,100.029-129.347C433.853,155.414,394.691,104.911,333.824,80.842z"/>
	</g>
</g>
<g>
	<g>
		<path d="M221.335,80.842c-28.189,24.479-46.177,74.427-46.177,129.347c0,54.921,17.988,104.868,46.177,129.347h18.497V80.842
			H221.335z"/>
	</g>
</g>
<g>
	<g>
		<path d="M142.821,210.189c0-50.445,13.186-96.733,35.737-129.347h-0.382c-60.867,24.069-100.029,74.572-100.029,129.347
			c0,54.775,39.162,105.278,100.029,129.347h0.382C156.007,306.923,142.821,260.635,142.821,210.189z"/>
	</g>
</g>
<g>
	<g>
		<rect x="304.505" y="451.638" width="32.337" height="60.362"/>
	</g>
</g>
<g>
	<g>
		<rect x="239.832" y="451.638" width="32.337" height="60.362"/>
	</g>
</g>
<g>
	<g>
		<rect x="175.158" y="451.638" width="32.337" height="60.362"/>
	</g>
</g>
</svg>