<?xml version="1.0" encoding="iso-8859-1"?>
<!-- Uploaded to: SVG Repo, www.svgrepo.com, Generator: SVG Repo Mixer Tools -->
<!DOCTYPE svg PUBLIC "-//W3C//DTD SVG 1.1//EN" "http://www.w3.org/Graphics/SVG/1.1/DTD/svg11.dtd">
<svg fill="currentColor" version="1.1" id="Capa_1" xmlns="http://www.w3.org/2000/svg" xmlns:xlink="http://www.w3.org/1999/xlink" 
	 width="800px" height="800px" viewBox="0 0 362.891 362.891"
	 xml:space="preserve">
<g>
	<g>
		<g id="Layer_5_21_">
			<g>
				<path d="M295.818,217.894c-0.825-0.402-3.419-0.396-5.403-0.237c-0.688,0.057-1.543,0.421-1.793,1.019
					c-6.673,15.875-23.604,26.081-41.195,26.081H71.973c-10.687,0-20.605-4.408-27.151-9.693c-1.454-1.31-2.922-1.26-3.618-1.281
					c-4.813-0.146-9.351-0.521-13.508-1.146c-2.482-0.372-4.845-0.831-7.095-1.371c-1.6-0.384-3.899,0.239-2.972,2.032
					c8.907,16.873,25.436,30.078,45.874,30.078h192.396c21.103,0,39.386-14.358,48.408-35.338c0.125-0.294,0.428-0.882-0.193-1.51
					C300.732,222.816,296.967,218.453,295.818,217.894z"/>
				<g>
					<path d="M123.277,153.738c2.388-5.295,11.524-25.392,20.361-44.211c0.496-1.056,0.73-2.942-2.608-3.997
						c-9.77-2.077-15.64-2.938-25.632-4.127c0,0.001,0,0.002,0,0.002c-9.769-1.165-19.566-1.838-29.24-1.886
						c-1.298-0.007-2.591-0.006-3.88,0.011c-10.851,0.13-21.514,1.065-31.792,2.989l-0.09,0.018
						c-0.333,0.063-0.667,0.127-0.996,0.193c-31.07,6.158-30.531,16.487-33.42,24.948c-3.07,8.989,3.83,16.244,1.069,25.455
						c-1.976,6.593-44.349,58.092,12.406,66.597c8.699,1.305,19.549,1.521,32.993,0.287c12.833-1.17,28.024-3.654,45.959-7.755
						c1.952-0.447,7.664-1.804,8.748-2.048c2.527-0.567,1.862-1.937,1.796-2.723C117.711,192.831,117.64,166.238,123.277,153.738z"
						/>
					<path d="M362.868,175.002c-0.331-1.7-8.352-2.771-15.667-1.334c-12.79,2.444-30.979,13.463-34.844,12.477
						c-0.507-0.129-3.913,0.112-12.989-6.143c-5.472-3.771-11.64-8.056-19.521-13.95v-0.001v-0.002
						c-5.67-4.246-11.895-8.708-18.424-13.084l0,0c-11.575-7.755-24.104-15.228-36.231-20.702v-0.002
						c-0.932-0.422-1.86-0.833-2.79-1.229c-8.926-3.818-18.866-7.687-29.519-11.343c0,0.001,0,0.002-0.001,0.003h-0.001
						c-0.512-0.176-1.024-0.35-1.542-0.523c-0.95-0.321-2.847-0.834-4.148,1.64c-9.855,19.913-26.491,53.751-27.846,58.123
						c-1.452,4.685-2.117,12.602-2.351,21.219c-0.018,0.667,0,2.187,2.243,1.641c8.269-1.37,13.892-2.115,21.434-3.003
						c14.167-1.663,27.065-2.538,38.726-2.832c13.952-0.354,26.132,0.118,36.59,1.049c12.399,1.104,22.389,2.844,30.052,4.604
						c6.968,1.601,12.938,1.821,15.194,4.366c0.012,0.014,31.907,42.601,41.145,47.948c1.205,0.695,2.348,0.452,2.493,0.413
						c4.831-1.29-18.75-55.459-17.479-57.311C328.534,195.363,363.897,180.284,362.868,175.002z"/>
				</g>
			</g>
		</g>
	</g>
</g>
</svg>