<?xml version="1.0" encoding="utf-8"?>

<!DOCTYPE svg PUBLIC "-//W3C//DTD SVG 1.1//EN" "http://www.w3.org/Graphics/SVG/1.1/DTD/svg11.dtd">
<!-- Uploaded to: SVG Repo, www.svgrepo.com, Generator: SVG Repo Mixer Tools -->
<svg version="1.1" id="_x32_" xmlns="http://www.w3.org/2000/svg" xmlns:xlink="http://www.w3.org/1999/xlink" 
	 viewBox="0 0 512 512"  xml:space="preserve">
<g>
	<path class="st0" d="M51.105,99.131c32.011,0,160.068,1.595,204.893,1.595c44.825,0,172.881-1.595,204.892-1.595
		c32.026,0,70.432-57.633,40.025-97.65c-14.41,14.41-102.45,30.415-244.917,30.415c-142.467,0-230.507-16.005-244.91-30.415
		C-19.326,41.499,19.088,99.131,51.105,99.131z"/>
	<path class="st0" d="M467.302,123.135c0-5.299-4.303-9.602-9.609-9.602H54.304c-5.299,0-9.602,4.303-9.602,9.602
		c0,5.307,4.303,9.602,9.602,9.602h403.388C462.999,132.737,467.302,128.442,467.302,123.135z"/>
	<polygon class="st0" points="10.936,510.518 130.986,510.518 130.986,460.9 18.942,460.9 	"/>
	<path class="st0" d="M30.138,270.402h39.564c1.933-16.35,3.628-33.444,4.993-51.214H22.132L30.138,270.402z"/>
	<path class="st0" d="M39.755,444.887h76.828c17.608-84.835,32.01-299.336,32.01-299.336H90.969
		C87.763,339.24,39.755,444.887,39.755,444.887z"/>
	<polygon class="st0" points="381.01,460.9 381.01,510.518 501.06,510.518 493.062,460.9 	"/>
	<path class="st0" d="M281.612,219.189h-51.221H156.6c-1.104,15.66-2.385,33.008-3.811,51.214h77.602h51.221h77.602
		c-1.434-18.206-2.715-35.553-3.819-51.214H281.612z"/>
	<path class="st0" d="M481.857,270.402l8.006-51.214H437.3c1.365,17.769,3.068,34.864,5,51.214H481.857z"/>
	<path class="st0" d="M472.256,444.887c0,0-48.024-105.648-51.229-299.336h-57.625c0,0,14.402,214.501,32.01,299.336H472.256z"/>
	<rect x="235.192" y="145.551" class="st0" width="41.612" height="62.426"/>
</g>
</svg>